<?xml version="1.0" encoding="UTF-8"?>
<!DOCTYPE svg PUBLIC "-//W3C//DTD SVG 1.1//EN" "http://www.w3.org/Graphics/SVG/1.1/DTD/svg11.dtd">
<svg xmlns="http://www.w3.org/2000/svg" version="1.1" width="460px" height="460px" style="shape-rendering:geometricPrecision; text-rendering:geometricPrecision; image-rendering:optimizeQuality; fill-rule:evenodd; clip-rule:evenodd" xmlns:xlink="http://www.w3.org/1999/xlink">
<g><path style="opacity:1" fill="transparent" d="M -0.5,-0.5 C 152.833,-0.5 306.167,-0.5 459.5,-0.5C 459.5,152.833 459.5,306.167 459.5,459.5C 306.167,459.5 152.833,459.5 -0.5,459.5C -0.5,306.167 -0.5,152.833 -0.5,-0.5 Z"/></g>
<g><path style="opacity:1" fill="#4e6bfe" d="M 309.5,93.5 C 312.099,93.5494 314.266,94.5494 316,96.5C 317.168,104.003 320.335,110.503 325.5,116C 331.744,119.524 338.077,122.857 344.5,126C 350.344,131.003 354.344,137.17 356.5,144.5C 367.798,134.261 381.131,130.094 396.5,132C 404.558,128.953 411.225,123.953 416.5,117C 419.636,115.959 422.136,116.793 424,119.5C 424.125,159.696 404.458,183.03 365,189.5C 363.654,238.586 345.821,280.42 311.5,315C 322.916,319.806 334.25,324.806 345.5,330C 348.834,336.687 346.834,341.354 339.5,344C 325.236,346.914 310.902,347.247 296.5,345C 292.1,343.651 287.767,342.151 283.5,340.5C 257.592,361.635 227.758,371.301 194,369.5C 138.327,366.006 96.3275,340.339 68,292.5C 50.7297,259.543 46.0631,224.876 54,188.5C 70.7078,137.56 105.874,111.56 159.5,110.5C 168.772,110.573 177.939,111.573 187,113.5C 199.609,108.611 212.442,104.444 225.5,101C 231.833,100.333 238.167,100.333 244.5,101C 246.874,101.848 248.874,103.181 250.5,105C 245.733,108.433 241.567,112.6 238,117.5C 235.691,123.312 236.524,128.646 240.5,133.5C 248.167,139.333 255.833,145.167 263.5,151C 275.14,162.64 286.806,174.306 298.5,186C 305.808,192.239 313.975,197.072 323,200.5C 324.261,200.241 325.261,199.574 326,198.5C 328.386,193.025 329.719,187.359 330,181.5C 305.17,164.157 295.503,140.49 301,110.5C 302.787,104.259 305.62,98.5924 309.5,93.5 Z"/></g>
<g><path style="opacity:1" fill="#e0e0e0" d="M 85.5,192.5 C 132.764,193.217 171.597,211.551 202,247.5C 215.754,267.343 229.754,287.009 244,306.5C 253.866,318.03 265.033,328.196 277.5,337C 264.905,338.413 252.571,337.413 240.5,334C 226.5,324 212.5,314 198.5,304C 170.436,287.064 164.103,293.064 179.5,322C 178.55,325.616 176.217,327.95 172.5,329C 163.701,330.445 155.368,329.111 147.5,325C 111.284,303.764 88.4509,272.597 79,231.5C 76.1855,220.319 74.8522,208.985 75,197.5C 77.9505,194.45 81.4505,192.784 85.5,192.5 Z"/></g>
<g><path style="opacity:1" fill="#eaeaea" d="M 250.5,203.5 C 260.055,202.851 268.388,205.685 275.5,212C 285.415,221.331 293.248,232.164 299,244.5C 299.635,246.635 299.301,248.635 298,250.5C 283.552,258.546 272.552,255.213 265,240.5C 264.38,235.646 264.547,230.813 265.5,226C 265.458,224.033 264.958,222.199 264,220.5C 259.36,216.304 253.86,214.471 247.5,215C 244.913,213.475 244.08,211.308 245,208.5C 246.73,206.598 248.563,204.931 250.5,203.5 Z"/></g>
<g><path style="opacity:1" fill="#ffffff" d="M 249.5,222.5 C 255.803,222.924 257.469,225.757 254.5,231C 250.366,233.389 247.7,232.222 246.5,227.5C 247.092,225.577 248.092,223.911 249.5,222.5 Z"/></g>
</svg>
